control3min_grf.mot
version=1
nRows=17
nColumns 19
inDegrees=yes
endheader
time	1_ground_force_vx	1_ground_force_vy	1_ground_force_vz	1_ground_force_px	1_ground_force_py	1_ground_force_pz	1_ground_torque_x	1_ground_torque_y	1_ground_torque_z	2_ground_force_vx	2_ground_force_vy	2_ground_force_vz	2_ground_force_px	2_ground_force_py	2_ground_force_pz	2_ground_torque_x	2_ground_torque_y	2_ground_torque_z
            1.253500	           -1.680305	          772.980825	          -81.196234	           -0.139171	            0.006292	           -0.417325	           -0.008236	            3.788810	           -0.397988	          -14.556030	          800.079728	          106.806973	           -0.144175	            0.006007	           -0.710133	            0.040962	           -2.251483	           -0.300563
            1.254000	           -1.264634	          767.929731	          -80.347635	           -0.139037	            0.006291	           -0.417264	           -0.006314	            3.834320	           -0.401181	          -13.602307	          795.299850	          105.522425	           -0.144223	            0.006008	           -0.710267	            0.037817	           -2.211091	           -0.293373
            1.254500	           -1.350890	          761.252578	          -78.679342	           -0.138700	            0.006293	           -0.417555	           -0.007012	            3.951652	           -0.408423	          -12.460856	          790.517849	          104.988661	           -0.144066	            0.006008	           -0.710190	            0.033024	           -2.095053	           -0.278244
            1.255000	           -1.115499	          755.475274	          -76.641133	           -0.138388	            0.006294	           -0.417782	           -0.005923	            4.011372	           -0.406944	          -11.974885	          785.551408	          103.891368	           -0.144039	            0.006008	           -0.710127	            0.031770	           -2.084122	           -0.275631
            1.255500	           -0.607069	          750.782701	          -75.332649	           -0.138356	            0.006293	           -0.417692	           -0.003051	            3.773419	           -0.378620	          -11.063901	          779.665391	          102.884480	           -0.143876	            0.006009	           -0.710137	            0.027849	           -1.962480	           -0.258968
            1.256000	            0.313168	          745.370840	          -74.395143	           -0.138247	            0.006293	           -0.417651	            0.001508	            3.589385	           -0.358255	          -10.437710	          774.702135	          101.036277	           -0.143629	            0.006009	           -0.709977	            0.026488	           -1.965995	           -0.256404
            1.256500	            1.414288	          740.503910	          -74.418744	           -0.138132	            0.006292	           -0.417419	            0.006596	            3.453630	           -0.347081	          -10.186441	          769.738409	           98.906680	           -0.143470	            0.006009	           -0.709837	            0.026660	           -2.014548	           -0.258857
            1.257000	            2.149743	          733.472419	          -74.175582	           -0.137716	            0.006294	           -0.417802	            0.010023	            3.419633	           -0.345825	           -9.284385	          766.248747	           97.251326	           -0.143710	            0.006008	           -0.709887	            0.024242	           -2.000688	           -0.253925
            1.257500	            2.655797	          729.324667	          -73.781897	           -0.137489	            0.006293	           -0.417514	            0.012795	            3.513601	           -0.355452	           -8.795735	          760.545454	           96.198339	           -0.143451	            0.006009	           -0.709824	            0.022614	           -1.955353	           -0.247325
            1.258000	            2.660071	          723.370365	          -72.523439	           -0.137346	            0.006294	           -0.417787	            0.013133	            3.571322	           -0.358052	           -7.934924	          755.580031	           95.194758	           -0.143496	            0.006009	           -0.709783	            0.020211	           -1.924498	           -0.242466
            1.258500	            2.528799	          717.773089	          -70.437695	           -0.137119	            0.006293	           -0.417672	            0.012441	            3.531330	           -0.346542	           -7.071393	          749.877544	           94.329325	           -0.143212	            0.006009	           -0.709670	            0.017362	           -1.841139	           -0.231602
            1.259000	            2.808241	          713.080201	          -69.036938	           -0.137105	            0.006293	           -0.417522	            0.013269	            3.369372	           -0.326206	           -6.256685	          744.727082	           93.512803	           -0.143141	            0.006010	           -0.709847	            0.016052	           -1.910655	           -0.239914
            1.259500	            3.499836	          706.405755	          -67.966702	           -0.136752	            0.006294	           -0.417763	            0.015453	            3.118943	           -0.300089	           -5.910120	          739.393359	           91.991909	           -0.142971	            0.006010	           -0.709640	            0.014726	           -1.842357	           -0.229218
            1.260000	            4.464778	          700.995747	          -67.487862	           -0.136650	            0.006294	           -0.417882	            0.019599	            3.077191	           -0.296254	           -5.610569	          734.060683	           90.095611	           -0.142854	            0.006010	           -0.709558	            0.013382	           -1.750837	           -0.214891
            1.260500	            5.795634	          695.767604	          -67.330153	           -0.136391	            0.006294	           -0.417815	            0.026502	            3.181622	           -0.307889	           -4.937342	          729.096090	           88.669748	           -0.142846	            0.006009	           -0.709357	            0.012740	           -1.881338	           -0.228801
            1.261000	            6.302036	          689.096268	          -66.993157	           -0.136034	            0.006295	           -0.417890	            0.029864	            3.265455	           -0.317464	           -4.591483	          723.946781	           87.055655	           -0.142691	            0.006010	           -0.709277	            0.011573	           -1.824662	           -0.219418
            1.261500	            6.671277	          684.767014	          -66.324791	           -0.135862	            0.006294	           -0.417803	            0.031935	            3.277906	           -0.317490	           -4.013121	          719.348793	           86.006572	           -0.142691	            0.006010	           -0.709475	            0.010349	           -1.855041	           -0.221792
